<svg width="34" height="34" viewBox="0 0 34 34" fill="none" xmlns="http://www.w3.org/2000/svg">
<path d="M12.917 33.667L12.125 28.375C11.653 28.2083 11.174 27.9793 10.688 27.688C10.2013 27.396 9.74966 27.0973 9.33299 26.792L4.41699 29L0.291992 21.792L4.74999 18.5C4.69466 18.278 4.65999 18.028 4.64599 17.75C4.63199 17.472 4.62499 17.222 4.62499 17C4.62499 16.778 4.63199 16.528 4.64599 16.25C4.65999 15.972 4.69466 15.722 4.74999 15.5L0.291992 12.208L4.41699 5.00001L9.33299 7.20801C9.74966 6.90267 10.208 6.60401 10.708 6.31201C11.208 6.02067 11.6803 5.79167 12.125 5.62501L12.917 0.333008H21.083L21.875 5.62501C22.347 5.79167 22.833 6.01401 23.333 6.29201C23.833 6.56934 24.2777 6.87467 24.667 7.20801L29.583 5.00001L33.708 12.208L29.25 15.417C29.3053 15.667 29.34 15.9307 29.354 16.208C29.368 16.486 29.375 16.75 29.375 17C29.375 17.25 29.368 17.507 29.354 17.771C29.34 18.035 29.3053 18.292 29.25 18.542L33.667 21.792L29.583 29L24.667 26.792C24.2503 27.0973 23.7987 27.4027 23.312 27.708C22.826 28.014 22.347 28.2363 21.875 28.375L21.083 33.667H12.917ZM17.042 22.542C18.5693 22.542 19.8747 22.0003 20.958 20.917C22.0413 19.8337 22.583 18.528 22.583 17C22.583 15.472 22.0413 14.1663 20.958 13.083C19.8747 11.9997 18.5693 11.458 17.042 11.458C15.486 11.458 14.1663 11.9997 13.083 13.083C11.9997 14.1663 11.458 15.472 11.458 17C11.458 18.528 11.9997 19.8337 13.083 20.917C14.1663 22.0003 15.486 22.542 17.042 22.542ZM17.042 19.792C16.264 19.792 15.604 19.521 15.062 18.979C14.5207 18.4377 14.25 17.778 14.25 17C14.25 16.222 14.5207 15.5623 15.062 15.021C15.604 14.479 16.264 14.208 17.042 14.208C17.792 14.208 18.4377 14.479 18.979 15.021C19.521 15.5623 19.792 16.222 19.792 17C19.792 17.778 19.521 18.4377 18.979 18.979C18.4377 19.521 17.792 19.792 17.042 19.792ZM15.208 30.875H18.75L19.333 26.292C20.2497 26.0693 21.104 25.729 21.896 25.271C22.6873 24.8123 23.4027 24.2637 24.042 23.625L28.375 25.458L30 22.542L26.208 19.708C26.3193 19.264 26.4097 18.8197 26.479 18.375C26.5483 17.9303 26.583 17.472 26.583 17C26.583 16.528 26.5553 16.0697 26.5 15.625C26.4447 15.1803 26.3473 14.736 26.208 14.292L30 11.458L28.375 8.54201L24.042 10.375C23.4027 9.68034 22.6943 9.10401 21.917 8.64601C21.139 8.18734 20.2777 7.87467 19.333 7.70801L18.792 3.12501H15.25L14.667 7.70801C13.7503 7.90267 12.896 8.22934 12.104 8.68801C11.3127 9.14601 10.5973 9.70834 9.95799 10.375L5.62499 8.54201L3.99999 11.458L7.79199 14.292C7.68066 14.736 7.59033 15.1803 7.52099 15.625C7.45166 16.0697 7.41699 16.528 7.41699 17C7.41699 17.472 7.45166 17.9303 7.52099 18.375C7.59033 18.8197 7.68066 19.264 7.79199 19.708L3.99999 22.542L5.62499 25.458L9.95799 23.625C10.5973 24.2637 11.3127 24.8123 12.104 25.271C12.896 25.729 13.7503 26.0693 14.667 26.292L15.208 30.875Z" fill="white"/>
</svg>
