<svg width="31" height="37" viewBox="0 0 31 37" fill="none" xmlns="http://www.w3.org/2000/svg">
<path d="M15.5 36.2916L10.375 31.1666H2.6875C2.00417 31.1666 1.40625 30.9033 0.89375 30.3765C0.38125 29.8498 0.125 29.259 0.125 28.6041V2.97913C0.125 2.29579 0.38125 1.69788 0.89375 1.18538C1.40625 0.672876 2.00417 0.416626 2.6875 0.416626H28.3125C28.9674 0.416626 29.5582 0.672876 30.0849 1.18538C30.6116 1.69788 30.875 2.29579 30.875 2.97913V28.6041C30.875 29.259 30.6116 29.8498 30.0849 30.3765C29.5582 30.9033 28.9674 31.1666 28.3125 31.1666H20.625L15.5 36.2916ZM2.6875 28.6041H11.4L15.5 32.7041L19.6 28.6041H28.3125V2.97913H2.6875V28.6041ZM2.6875 2.97913V28.6041V2.97913ZM15.3719 25.2729C15.8274 25.2729 16.2118 25.1163 16.525 24.8031C16.8382 24.4899 16.9948 24.1055 16.9948 23.65C16.9948 23.1944 16.8382 22.81 16.525 22.4968C16.2118 22.1836 15.8274 22.027 15.3719 22.027C14.9163 22.027 14.5319 22.1836 14.2188 22.4968C13.9056 22.81 13.749 23.1944 13.749 23.65C13.749 24.1055 13.9056 24.4899 14.2188 24.8031C14.5319 25.1163 14.9163 25.2729 15.3719 25.2729ZM16.3969 18.952C16.3969 18.0694 16.5392 17.3505 16.824 16.7953C17.1087 16.2401 17.6069 15.6066 18.3188 14.8948C19.2583 13.9552 19.9132 13.1224 20.2833 12.3963C20.6535 11.6703 20.8385 10.9086 20.8385 10.1114C20.8385 8.60239 20.3545 7.40656 19.3865 6.52392C18.4184 5.64128 17.1087 5.19996 15.4573 5.19996C14.0052 5.19996 12.7595 5.54874 11.7203 6.24631C10.6811 6.94388 9.91944 7.90482 9.43542 9.12913L11.699 10.0687C12.0976 9.27149 12.6101 8.66645 13.2365 8.25361C13.8628 7.84076 14.6031 7.63433 15.4573 7.63433C16.3684 7.63433 17.0873 7.86211 17.6141 8.31767C18.1408 8.77322 18.4042 9.39961 18.4042 10.1968C18.4042 10.7663 18.2476 11.3144 17.9344 11.8411C17.6212 12.3678 17.0944 12.9871 16.3542 13.6989C15.3007 14.6954 14.6387 15.5496 14.3682 16.2614C14.0977 16.9732 13.9625 17.8701 13.9625 18.952H16.3969Z" fill="white"/>
</svg>
