<svg width="32" height="32" viewBox="0 0 32 32" fill="none" xmlns="http://www.w3.org/2000/svg">
<path d="M2.45747 20.2256L6.59885 11.073H7.96201L12.1034 20.2256H10.4157L9.50691 18.1095H5.04097L4.14518 20.2256H2.45747ZM7.26096 12.8776L5.61219 16.7853H8.93568L7.28692 12.8776H7.26096ZM12.5856 20.2256V11.073H15.9869C17.5189 11.073 18.7003 11.4668 19.5311 12.2544C20.3707 13.042 20.7904 14.1715 20.7904 15.6428C20.7904 17.1055 20.3707 18.235 19.5311 19.0312C18.7003 19.8275 17.5189 20.2256 15.9869 20.2256H12.5856ZM14.2473 18.8495H15.8831C17.9949 18.8495 19.0508 17.7806 19.0508 15.6428C19.0508 13.5137 17.9949 12.4491 15.8831 12.4491H14.2473V18.8495ZM25.1099 20.3554C24.3916 20.3554 23.7251 20.2645 23.1106 20.0828C22.4961 19.8924 21.9768 19.6371 21.5527 19.3168L22.0591 18.0056C22.4831 18.3085 22.9462 18.5422 23.4482 18.7066C23.9588 18.8711 24.5127 18.9533 25.1099 18.9533C25.7937 18.9533 26.2913 18.8408 26.6029 18.6158C26.9145 18.3821 27.0703 18.0835 27.0703 17.72C27.0703 17.4171 26.9577 17.1791 26.7327 17.006C26.5163 16.8329 26.1399 16.69 25.6033 16.5775L24.1752 16.2789C22.5481 15.9327 21.7345 15.0975 21.7345 13.7733C21.7345 13.2021 21.886 12.7045 22.1889 12.2804C22.4918 11.8563 22.9116 11.5274 23.4482 11.2937C23.9848 11.06 24.6036 10.9432 25.3047 10.9432C25.9278 10.9432 26.512 11.0384 27.0573 11.2288C27.6025 11.4105 28.0569 11.6702 28.4204 12.0077L27.9141 13.254C27.1958 12.6482 26.3216 12.3453 25.2917 12.3453C24.6945 12.3453 24.2271 12.4708 23.8896 12.7218C23.552 12.9728 23.3833 13.3016 23.3833 13.7084C23.3833 14.02 23.4871 14.271 23.6948 14.4614C23.9026 14.6432 24.2574 14.786 24.7594 14.8898L26.1745 15.1884C27.0313 15.3702 27.6675 15.6558 28.0829 16.0453C28.507 16.4347 28.719 16.954 28.719 17.6031C28.719 18.1484 28.5719 18.6288 28.2776 19.0442C27.9834 19.4596 27.5636 19.7842 27.0183 20.0179C26.4817 20.2429 25.8456 20.3554 25.1099 20.3554Z" fill="white"/>
<line x1="5.62055" y1="25.363" x2="25.6761" y2="5.3074" stroke="white" stroke-width="1.88021"/>
<rect x="1.89845" y="1.89842" width="28.2031" height="28.2031" rx="14.1016" stroke="white" stroke-width="1.88021"/>
</svg>
