<svg width="28" height="28" viewBox="0 0 28 28" fill="none" xmlns="http://www.w3.org/2000/svg">
<path d="M14.0336 27.3336C12.1888 27.3336 10.4555 26.9835 8.83361 26.2832C7.21121 25.5835 5.80001 24.6336 4.60001 23.4336C3.40001 22.2336 2.45015 20.8224 1.75041 19.2C1.05015 17.5776 0.700012 15.8555 0.700012 14.0336C0.700012 10.5222 1.87228 7.50538 4.21681 4.98324C6.56135 2.46111 9.46695 1.05551 12.9336 0.766442V4.36644C10.4669 4.63311 8.41121 5.68324 6.76641 7.51684C5.12215 9.34991 4.30001 11.5222 4.30001 14.0336C4.30001 16.7222 5.24455 19.011 7.13361 20.9C9.02215 22.7891 11.3221 23.7336 14.0336 23.7336C15.5888 23.7336 17.0499 23.3891 18.4168 22.7C19.7832 22.011 20.9443 21.0555 21.9 19.8336L25.0336 21.6336C23.7669 23.4112 22.1723 24.8056 20.2496 25.8168C18.3275 26.828 16.2555 27.3336 14.0336 27.3336ZM12.9 19.1V15.0664H8.90001V12.8336H12.9V8.83364H15.1336V12.8336H19.1336V15.0664H15.1336V19.1H12.9ZM26.1336 19.6L23.0336 17.8336C23.2779 17.2112 23.4611 16.5779 23.5832 15.9336C23.7053 15.2888 23.7664 14.6443 23.7664 14C23.7664 11.4891 22.9443 9.31124 21.3 7.46644C19.6557 5.62218 17.6112 4.57791 15.1664 4.33364V0.733643C18.6112 1.00031 21.5056 2.39471 23.8496 4.91684C26.1941 7.43898 27.3664 10.4334 27.3664 13.9C27.3664 14.9 27.2664 15.8723 27.0664 16.8168C26.8664 17.7614 26.5555 18.6891 26.1336 19.6Z" fill="white"/>
</svg>
