<svg width="28" height="32" viewBox="0 0 28 32" fill="none" xmlns="http://www.w3.org/2000/svg">
<path d="M16.3854 31.8334L15.9896 27.4792H14.4062C10.6326 27.4792 7.41319 26.1465 4.74792 23.4813C2.08264 20.816 0.75 17.5965 0.75 13.8229C0.75 10.0493 2.08924 6.82988 4.76771 4.1646C7.44618 1.49933 10.6854 0.166687 14.4854 0.166687C16.359 0.166687 18.0941 0.503145 19.6906 1.17606C21.2872 1.84898 22.6792 2.79238 23.8667 4.00627C25.0542 5.22016 25.9844 6.65176 26.6573 8.30106C27.3302 9.95037 27.6667 11.7514 27.6667 13.7042C27.6667 15.4459 27.4094 17.1875 26.8948 18.9292C26.3802 20.6709 25.6347 22.3334 24.6583 23.9167C23.6819 25.5 22.4944 26.9646 21.0958 28.3104C19.6972 29.6563 18.1271 30.8306 16.3854 31.8334ZM18.3646 27.5584C20.5285 25.7375 22.224 23.5934 23.451 21.1261C24.6781 18.6587 25.2917 16.1847 25.2917 13.7042C25.2917 10.432 24.2691 7.75349 22.224 5.66877C20.1788 3.58405 17.5993 2.54169 14.4854 2.54169C11.3187 2.54169 8.63368 3.64342 6.43021 5.8469C4.22674 8.05037 3.125 10.709 3.125 13.8229C3.125 16.9368 4.22674 19.5955 6.43021 21.799C8.63368 24.0025 11.2924 25.1042 14.4062 25.1042H18.3646V27.5584ZM14.4854 23.0063C14.9076 23.0063 15.2639 22.8611 15.5542 22.5709C15.8444 22.2806 15.9896 21.9243 15.9896 21.5021C15.9896 21.0799 15.8444 20.7236 15.5542 20.4334C15.2639 20.1431 14.9076 19.9979 14.4854 19.9979C14.0632 19.9979 13.7069 20.1431 13.4167 20.4334C13.1264 20.7236 12.9812 21.0799 12.9812 21.5021C12.9812 21.9243 13.1264 22.2806 13.4167 22.5709C13.7069 22.8611 14.0632 23.0063 14.4854 23.0063ZM13.4167 17.6229H15.3958C15.3958 16.9632 15.508 16.4156 15.7323 15.9802C15.9566 15.5448 16.425 14.9709 17.1375 14.2584C17.85 13.5459 18.3514 12.8927 18.6417 12.299C18.9319 11.7052 19.0771 11.0653 19.0771 10.3792C19.0771 9.19169 18.6747 8.2153 17.8698 7.45002C17.0649 6.68474 15.9896 6.3021 14.6437 6.3021C13.5354 6.3021 12.5458 6.59238 11.675 7.17294C10.8042 7.75349 10.1576 8.54516 9.73542 9.54794L11.5562 10.3C11.8465 9.61391 12.249 9.10592 12.7635 8.77606C13.2781 8.4462 13.8653 8.28127 14.525 8.28127C15.3167 8.28127 15.9368 8.47259 16.3854 8.85523C16.834 9.23787 17.0583 9.74585 17.0583 10.3792C17.0583 10.8806 16.9132 11.3886 16.6229 11.9031C16.3326 12.4177 15.8181 13.0577 15.0792 13.8229C14.3667 14.5618 13.9115 15.1556 13.7135 15.6042C13.5156 16.0528 13.4167 16.7257 13.4167 17.6229Z" fill="white"/>
</svg>
