<svg width="28" height="28" viewBox="0 0 28 28" fill="none" xmlns="http://www.w3.org/2000/svg">
<path d="M6.00001 16.6664H22V14.4336H6.00001V16.6664ZM6.00001 12.4336H22V10.2336H6.00001V12.4336ZM6.00001 8.23358H22V5.99998H6.00001V8.23358ZM27.3336 27.3336L22 22H2.90001C2.30001 22 1.77788 21.7778 1.33361 21.3336C0.888812 20.8888 0.666412 20.3664 0.666412 19.7664V2.89998C0.666412 2.29998 0.888812 1.77785 1.33361 1.33358C1.77788 0.888782 2.30001 0.666382 2.90001 0.666382H25.1C25.7 0.666382 26.2221 0.888782 26.6664 1.33358C27.1112 1.77785 27.3336 2.29998 27.3336 2.89998V27.3336ZM2.90001 2.89998V19.7664H22.9336L25.1 21.9664V2.89998H2.90001ZM2.90001 2.89998V21.9664V2.89998Z" fill="white"/>
</svg>
